<?xml version="1.0" standalone="no"?> <!DOCTYPE svg PUBLIC "-//W3C//DTD SVG 1.0//EN" "http://www.w3.org/TR/2001/REC-SVG-20010904/DTD/svg10.dtd" > <svg xmlns="http://www.w3.org/2000/svg" width="100%" height="100%">
<defs >
<font id="chronicledeckcond-semibold" horiz-adv-x="372" ><font-face
    font-family="Chronicle Deck Cond Semi"
    units-per-em="1000"
    panose-1="0 0 0 0 0 0 0 0 0 0"
    ascent="800"
    descent="-200"
    alphabetic="0" />
<missing-glyph horiz-adv-x="500" d="M0 -200V800H500V-200H0ZM71 750L250 360L429 750H71ZM50 -76L222 300L50 676V-76ZM450 676L278 300L450 -76V676ZM250 240L71 -150H429L250 240Z" />
<glyph unicode=" " glyph-name="space" horiz-adv-x="161" />
<glyph unicode="!" glyph-name="exclam" horiz-adv-x="242" d="M111 193Q103 302 82 447T60 634Q60 672 76 692T121 713T166 693T183 634Q183 592 161 447T131 193H111ZM122 -15Q95 -15 77 4T58 51Q58 79 76 98T122 118T166 99T184 51Q184 24 166 5T122 -15Z" />
<glyph unicode="&quot;" glyph-name="quotedbl" horiz-adv-x="373" d="M73 429L54 437L71 536Q89 638 96 658Q109 693 139 693Q160 693 174 680T189 647Q189 635 180 615Q167 585 125 515L73 429ZM231 429L212 437L229 536Q247 638 254 658Q267 693 297 693Q318
693 332 680T347 647Q347 635 338 615Q325 585 283 515L231 429Z" />
<glyph unicode="#" glyph-name="numbersign" horiz-adv-x="594" d="M275 696L238 476H406L443 696H475L438 476H565V448H434L393 208H528V180H389L352 -42H320L357 180H190L153 -42H121L157 180H32V208H162L202 448H69V476H206L243 696H275ZM234 448L194 208H361L401
448H234Z" />
<glyph unicode="$" glyph-name="dollar" horiz-adv-x="483" d="M230 -64V13Q152 15 97 51T42 144Q42 170 58 190T102 210Q127 210 142 193T157 149Q157 111 119 90Q132 69 162 54T231 37V283L217 289Q140 322 100 360T60 463Q60 535 109 583T234 639V707H266V640Q339
638 387 604T435 519Q435 493 421 475T382 456Q355 456 341 473T326 515Q326 531 335 546T360 569Q329 613 265 616V385Q268 383 275 381T285 377Q361 345 400 307T440 199Q440 131 395 76T262 14V-64H230ZM359 105T359 148T337 217T262 269V38Q309 43 334 74ZM147
509Q147 472 167 448T234 400V614Q194 608 171 581T147 509Z" />
<glyph unicode="%" glyph-name="percent" horiz-adv-x="711" d="M522 18Q571 18 608 92T646 240Q646 333 593 333Q557 333 527 294T482 202T467 100Q467 60 482 39T522 18ZM507 -13Q450 -13 418 26T385 131Q385 219 442 294T574 370Q621 370 647 336T674 241Q674
193 657 137T599 34T507 -13ZM296 534Q296 557 294 567Q249 583 213 617Q171 596 145 528T118 394Q118 354 133 333T173 312Q222 312 259 386T296 534ZM225 664Q289 664 312 604Q346 586 391 586Q478 586 551 679H583L166 -26H117L511 607L507 610Q447 555 370
555Q344 555 324 559Q325 552 325 535Q325 487 308 431T250 328T158 281Q100 281 68 320T36 425Q36 513 93 588T225 664Z" />
<glyph unicode="&amp;" glyph-name="ampersand" horiz-adv-x="653" d="M288 384Q352 445 352 534Q352 637 283 637Q252 637 233 611T213 541Q213 472 288 384ZM213 324Q144 270 144 174Q144 114 175 78T258 41Q317 41 366 107Q304 232 213 324ZM424 203Q483 365
562 365Q594 365 612 346T630 296Q630 269 615 252T574 234Q552 234 537 250T522 287Q522 299 527 309L524 312Q482 287 438 180Q474 104 500 74T555 44Q582 44 617 78L629 64Q560 -16 499 -16Q456 -16 430 7T377 87Q313 -16 209 -16Q128 -16 85 32T41 149Q41 276
198 340Q161 386 145 420T128 497Q128 567 173 612T292 657Q357 657 395 621T434 530Q434 481 404 443T304 368Q379 290 424 203Z" />
<glyph unicode="&apos;" glyph-name="quotesingle" horiz-adv-x="215" d="M73 429L54 437L71 536Q89 638 96 658Q109 693 139 693Q160 693 174 680T189 647Q189 635 180 615Q167 585 125 515L73 429Z" />
<glyph unicode="(" glyph-name="parenleft" horiz-adv-x="336" d="M345 -164Q224 -108 142 8T60 294Q60 410 103 506T207 659T345 753L354 737Q260 674 212 570T164 296Q164 124 212 20T354 -148L345 -164Z" />
<glyph unicode=")" glyph-name="parenright" horiz-adv-x="336" d="M-9 -164L-18 -148Q77 -85 124 19T172 294Q172 466 125 570T-18 737L-9 753Q112 697 194 581T276 296Q276 208 252 131T187 -2T96 -98T-9 -164Z" />
<glyph unicode="*" glyph-name="asterisk" horiz-adv-x="348" d="M225 422Q194 412 181 451Q177 465 177 553L167 556Q121 489 104 476Q72 452 52 478Q34 503 66 527Q90 542 162 563V573Q79 600 66 609Q33 632 52 658Q72 684 103 660Q120 648 167 580L177 583Q177
673 181 686Q194 723 224 715Q254 706 242 665Q237 649 185 580L191 573Q275 600 290 600Q308 600 319 592T330 569Q330 536 290 536Q278 536 191 563L186 556Q237 485 242 470Q253 431 225 422Z" />
<glyph unicode="+" glyph-name="plus" horiz-adv-x="480" d="M46 306V337H223V541H258V337H434V306H258V99H223V306H46Z" />
<glyph unicode="," glyph-name="comma" horiz-adv-x="210" d="M33 -148L22 -131Q68 -106 93 -70T121 -2L117 0Q106 -8 93 -8Q71 -8 56 8T40 51Q40 79 57 98T101 118Q134 118 153 95T173 32Q173 -84 33 -148Z" />
<glyph unicode="-" glyph-name="hyphen" horiz-adv-x="315" d="M47 233V282H268V233H47Z" />
<glyph unicode="." glyph-name="period" horiz-adv-x="210" d="M132 -15T105 -15T60 4T42 51Q42 79 60 98T105 118T150 99T168 51Q168 24 150 5Z" />
<glyph unicode="/" glyph-name="slash" horiz-adv-x="381" d="M-3 -212L175 261L349 736H386L208 261L34 -212H-3Z" />
<glyph unicode="0" glyph-name="zero" horiz-adv-x="526" d="M263 -13Q159 -13 97 82T34 323T98 566T263 664Q367 664 429 569T492 327Q492 182 428 85T263 -13ZM267 11Q327 11 349 81T372 325Q372 495 346 568T259 641Q199 641 176 570T153 325Q153 156 179 84T267 11Z" />
<glyph unicode="1" glyph-name="one" horiz-adv-x="371" d="M34 0V19Q93 20 116 32T139 76V544Q139 588 119 603T31 619V637L246 658V76Q246 44 268 32T350 19V0H34Z" />
<glyph unicode="2" glyph-name="two" horiz-adv-x="481" d="M47 0V73L163 185Q257 276 290 341T324 490Q324 566 297 603T223 640Q192 640 165 623T124 579Q176 557 176 506Q176 476 159 455T113 434Q83 434 64 455T45 511Q45 575 102 619T238 664Q332 664 383
615T435 489Q435 425 391 366T235 206L111 95V90H320Q367 90 385 109T424 194H441L438 0H47Z" />
<glyph unicode="3" glyph-name="three" horiz-adv-x="478" d="M222 -13Q143 -13 87 23T31 116Q31 147 49 168T96 189Q123 189 139 170T155 122Q155 80 116 55Q150 11 221 11Q332 11 332 170Q332 249 297 285T183 322H161V348H178Q258 348 289 385T320 505Q320
641 220 641Q159 641 127 593Q171 576 171 526Q171 499 156 480T112 460Q85 460 68 479T50 528Q50 585 104 624T235 664Q328 664 379 621T431 509Q431 449 385 404T250 338V335Q341 329 392 288T443 174Q443 94 385 41T222 -13Z" />
<glyph unicode="4" glyph-name="four" horiz-adv-x="496" d="M485 203H367V76Q367 45 384 33T443 19V0H181V19Q226 20 245 32T264 75V203H20V251L292 654H367V268H485V203ZM258 554L67 268H264V554H258Z" />
<glyph unicode="5" glyph-name="five" horiz-adv-x="470" d="M222 -13Q144 -13 90 24T35 119Q35 151 53 172T102 193Q129 193 144 175T160 129Q160 80 116 57Q147 11 213 11Q271 11 297 56T324 197Q324 370 213 370Q147 370 91 311L71 323L83 652H416L405 555H111L103
349Q161 401 240 401Q337 401 386 346T435 204Q435 117 378 52T222 -13Z" />
<glyph unicode="6" glyph-name="six" horiz-adv-x="494" d="M255 -13Q155 -13 97 62T38 255Q38 434 140 536Q191 591 256 622T421 669V650Q305 617 234 543T147 332L151 330Q192 426 293 426Q369 426 415 371T462 230Q462 126 406 57T255 -13ZM258 10Q351 10 351
214Q351 307 329 350T261 394Q216 394 183 344T150 197Q150 109 180 60T258 10Z" />
<glyph unicode="7" glyph-name="seven" horiz-adv-x="449" d="M87 -10V1L380 559H157Q114 559 97 537T63 443H44L50 652H435V626L290 258L186 -10H87Z" />
<glyph unicode="8" glyph-name="eight" horiz-adv-x="483" d="M36 152Q36 205 71 248T165 318Q54 381 54 483Q54 560 107 612T245 664Q327 664 380 621T433 515Q433 463 403 427T311 359Q450 291 450 177Q450 98 390 43T246 -13Q148 -13 92 32T36 152ZM207 298L193
304Q127 252 127 160Q127 91 158 51T243 11Q351 11 351 135Q351 190 318 226T207 298ZM148 526Q148 474 182 438T288 370Q343 417 343 508Q343 570 317 605T241 640Q199 640 174 612T148 526Z" />
<glyph unicode="9" glyph-name="nine" horiz-adv-x="494" d="M74 -17V1Q321 67 348 319L344 321Q325 273 290 249T210 225Q131 225 82 282T33 430Q33 528 93 596T249 664Q349 664 403 590T458 395Q458 219 355 116Q304 60 239 29T74 -17ZM244 257Q285 257 315
310T346 453T319 592T245 641Q196 641 170 588T144 440Q144 257 244 257Z" />
<glyph unicode=":" glyph-name="colon" horiz-adv-x="220" d="M137 276T110 276T65 295T47 343Q47 370 65 389T110 409T155 390T173 343Q173 315 155 296ZM137 -15T110 -15T65 4T47 51Q47 79 65 98T110 118T155 99T173 51Q173 24 155 5Z" />
<glyph unicode=";" glyph-name="semicolon" horiz-adv-x="220" d="M138 276T111 276T66 295T48 343Q48 370 66 389T111 409T156 390T174 343Q174 315 156 296ZM37 -148L26 -131Q72 -106 97 -70T125 -2L121 0Q111 -8 97 -8Q75 -8 60 8T44 51Q44 79 61 98T105 118Q138
118 157 95T177 32Q177 -84 37 -148Z" />
<glyph unicode="&lt;" glyph-name="less" horiz-adv-x="473" d="M70 307V336L403 544V508L105 321L403 135V99L70 307Z" />
<glyph unicode="=" glyph-name="equal" horiz-adv-x="475" d="M50 222V253H425V222H50ZM50 388V419H425V388H50Z" />
<glyph unicode="&gt;" glyph-name="greater" horiz-adv-x="473" d="M403 307L70 99V135L368 322L70 507V544L403 336V307Z" />
<glyph unicode="?" glyph-name="question" horiz-adv-x="418" d="M162 194L161 343Q232 362 261 406T291 535Q291 610 265 649T189 689Q157 689 131 674T95 637Q143 617 143 566Q143 538 127 518T81 497T34 519T15 571Q15 633 67 673T200 713Q294 713 346 662T398
536Q398 375 195 325V194H162ZM207 -15T180 -15T135 4T116 51Q116 79 134 98T180 118T225 99T243 51Q243 24 225 5Z" />
<glyph unicode="@" glyph-name="at" horiz-adv-x="775" d="M401 -146Q246 -146 149 -36T51 256Q51 442 153 563T418 684Q548 684 636 590T724 350Q724 216 666 139T527 61Q431 61 423 144L419 145Q373 65 312 65Q265 65 237 100T208 203Q208 305 266 391T404 477Q457
477 479 423H483L495 469L579 478L539 339L506 193Q494 149 505 120T548 91Q604 91 649 163T695 349Q695 482 616 571T414 660Q265 660 173 545T80 260Q80 93 167 -14T405 -121Q470 -121 518 -101T615 -38L629 -57Q525 -146 401 -146ZM348 111Q385 111 422 186L469
383Q464 414 450 432T416 450Q381 450 352 405T309 304T295 203Q295 111 348 111Z" />
<glyph unicode="A" glyph-name="A" horiz-adv-x="584" d="M394 100L349 255H155L126 164Q100 85 109 57T178 18V0H-20V18Q23 28 46 58T94 164L270 702H327L504 113Q519 62 537 44T603 18V0H319V18Q377 22 391 39T394 100ZM163 280H341L259 571H255L163 280Z" />
<glyph unicode="B" glyph-name="B" horiz-adv-x="582" d="M27 0V19Q79 21 97 35T115 82V606Q115 637 97 652T27 669V687H295Q420 687 474 641T528 523Q528 466 487 422T363 366V363Q456 356 504 312T552 197Q552 113 493 57T302 0H27ZM225 375H289Q358 375 387
410T416 518Q416 589 387 626T287 663H225V375ZM225 25H298Q378 25 408 65T438 194Q438 351 291 351H225V25Z" />
<glyph unicode="C" glyph-name="C" horiz-adv-x="589" d="M320 -15Q195 -15 116 80T37 338Q37 495 125 599T336 703Q413 703 480 659L514 707H532V466H512Q474 573 431 625T330 678Q257 678 209 596T160 347Q160 186 216 106T351 26Q475 26 536 206L560 196Q490
-15 320 -15Z" />
<glyph unicode="D" glyph-name="D" horiz-adv-x="648" d="M27 0V19Q79 21 97 35T115 82V606Q115 637 97 652T27 669V687H287Q444 687 527 596T610 355Q610 284 592 222T537 110T440 30T298 0H27ZM225 25H276Q397 25 443 95T489 348Q489 526 438 594T274 663H225V25Z" />
<glyph unicode="E" glyph-name="E" horiz-adv-x="589" d="M27 0V19Q79 21 97 35T115 82V606Q115 637 97 652T27 669V687H518L522 473L502 472Q463 582 429 622T321 662H225V366H263Q315 366 340 390T384 492H403V215H384Q366 292 341 316T263 341H225V25H319Q364
25 395 36T450 74T490 136T526 229L547 228L542 0H27Z" />
<glyph unicode="F" glyph-name="F" horiz-adv-x="559" d="M27 0V19Q79 21 97 35T115 82V606Q115 637 97 652T27 669V687H516L522 469L501 468Q464 578 426 620T312 662H225V359H265Q316 359 340 382T384 482H402V208H384Q365 285 341 309T265 333H225V82Q225 49
243 35T316 19V0H27Z" />
<glyph unicode="G" glyph-name="G" horiz-adv-x="629" d="M342 -15Q210 -15 124 79T37 342Q37 500 127 601T343 703Q425 703 491 665L524 707H542V479H522Q479 582 436 630T336 678Q261 678 211 597T160 345Q160 176 213 93T344 9Q408 9 446 45V246Q446 277 426
291T353 308V327H615V308Q575 305 564 294T552 247V47Q512 18 454 2T342 -15Z" />
<glyph unicode="H" glyph-name="H" horiz-adv-x="699" d="M27 0V19Q79 21 97 35T115 81V606Q115 638 97 652T27 669V687H307V669Q256 667 241 654T225 606V369H475V606Q475 639 459 653T393 669V687H672V669Q620 667 602 653T584 606V81Q584 49 602 35T672 19V0H393V19Q443
21 459 34T475 81V344H225V81Q225 48 240 35T307 19V0H27Z" />
<glyph unicode="I" glyph-name="I" horiz-adv-x="356" d="M34 0V19Q87 21 105 35T124 82V606Q124 637 106 652T34 669V687H322V669Q269 667 251 652T233 606V82Q233 50 251 36T322 19V0H34Z" />
<glyph unicode="J" glyph-name="J" horiz-adv-x="477" d="M189 -16Q115 -16 69 21T22 116Q22 150 42 173T92 197Q120 197 138 178T156 130Q156 103 141 83T97 55Q121 14 174 14Q267 14 267 156V606Q267 638 249 652T175 669V687H462V669Q411 667 394 653T377 606V198Q377
94 327 39T189 -16Z" />
<glyph unicode="K" glyph-name="K" horiz-adv-x="642" d="M224 314L414 545Q458 598 455 629T394 670V687H620V670Q571 659 538 634T444 539L350 428L524 126Q559 64 579 45T644 18V0H383V18Q428 23 434 40T417 98L278 339L224 275V79Q224 46 237 34T296 19V0H26V19Q78
21 96 35T114 81V606Q114 638 96 652T26 669V687H306V669Q256 667 240 653T224 606V314Z" />
<glyph unicode="L" glyph-name="L" horiz-adv-x="537" d="M26 0V19Q78 21 96 35T114 82V606Q114 637 96 652T26 669V687H310V669Q257 667 241 653T224 606V25H285Q372 25 414 67T498 231L519 229L511 0H26Z" />
<glyph unicode="M" glyph-name="M" horiz-adv-x="822" d="M25 0V18Q83 29 102 59T122 161V565Q122 665 25 669V687H250L418 169H422L583 687H795V669Q744 667 726 652T707 606V82Q707 50 725 36T795 19V0H518V19Q567 21 583 35T599 82V621H594L398 -1H364L156
621H151V161Q151 88 169 59T248 18V0H25Z" />
<glyph unicode="N" glyph-name="N" horiz-adv-x="661" d="M522 -10L153 569H151V161Q151 88 170 58T251 18V0H25V18Q83 29 102 59T122 161V562Q122 665 25 669V687H208L533 177H535V527Q535 598 513 629T428 670V687H655V670Q598 658 581 629T564 527V-10H522Z" />
<glyph unicode="O" glyph-name="O" horiz-adv-x="640" d="M320 -15Q197 -15 117 84T37 342Q37 499 118 601T320 703Q442 703 522 603T602 345Q602 188 521 87T320 -15ZM323 9Q402 9 441 87T480 343T439 599T316 678Q237 678 199 600T160 344T201 88T323 9Z" />
<glyph unicode="P" glyph-name="P" horiz-adv-x="555" d="M27 0V19Q79 21 97 35T115 82V606Q115 637 97 652T27 669V687H285Q414 687 472 635T531 498Q531 415 470 355T281 294H225V82Q225 49 243 35T317 19V0H27ZM225 319H278Q356 319 385 363T414 495Q414 575
385 619T281 663H225V319Z" />
<glyph unicode="Q" glyph-name="Q" horiz-adv-x="640" d="M323 9Q402 9 441 87T480 343T439 599T316 678Q237 678 199 600T160 344T201 88T323 9ZM355 -12Q382 -23 408 -49T452 -100T491 -143T532 -162Q555 -162 555 -138Q555 -127 535 -108T514 -68Q514 -46 528
-31T565 -15Q589 -15 605 -34T621 -81Q621 -131 581 -163T479 -196Q446 -196 417 -182T368 -147T329 -106T292 -72T255 -57Q207 -57 140 -127L125 -112Q191 -29 263 -8Q162 14 100 109T37 342Q37 499 118 601T320 703Q442 703 522 603T602 345Q602 200 532 102T355
-12Z" />
<glyph unicode="R" glyph-name="R" horiz-adv-x="605" d="M225 357H286Q363 357 391 396T419 516Q419 589 387 626T277 663H225V357ZM225 332V82Q225 49 242 35T310 19V0H27V19Q79 21 97 35T115 82V606Q115 637 97 652T27 669V687H299Q423 687 479 641T536 521Q536
377 363 346V343Q448 337 480 298T523 177L530 120Q537 57 554 40T623 22V5Q584 -6 544 -6Q471 -6 446 21T415 119L407 210Q401 285 376 308T279 332H225Z" />
<glyph unicode="S" glyph-name="S" horiz-adv-x="494" d="M45 -18V223H65Q112 114 157 63T261 11Q319 11 349 48T380 137Q380 199 344 233T224 301Q183 318 160 330T108 365T66 419T53 491Q53 586 111 644T258 702Q325 702 383 671L412 707H430V490H409Q372 588
333 632T245 677Q200 677 170 645T139 557T175 470T290 406Q329 389 353 376T405 340T446 286T459 212Q459 121 407 54T251 -14Q174 -14 108 26L62 -18H45Z" />
<glyph unicode="T" glyph-name="T" horiz-adv-x="593" d="M146 0V19Q201 21 222 36T243 82V663H213Q165 663 129 618T53 467L32 468L38 687H557L563 468L542 467Q503 570 467 616T382 663H352V82Q352 51 373 36T449 19V0H146Z" />
<glyph unicode="U" glyph-name="U" horiz-adv-x="648" d="M335 -16Q224 -16 164 37T104 191V606Q104 637 86 652T16 669V687H295V669Q245 667 229 653T213 606V202Q213 22 373 22Q441 22 478 67Q521 117 521 221V527Q521 598 499 629T414 670V687H644V670Q586
658 569 629T551 527V207Q551 103 498 44T335 -16Z" />
<glyph unicode="V" glyph-name="V" horiz-adv-x="601" d="M276 -14L91 574Q76 625 58 643T-8 670V687H275V670Q218 666 204 649T201 590L342 120H346L475 536Q496 605 485 631T415 670V687H617V670Q573 660 551 632T505 526L331 -14H276Z" />
<glyph unicode="W" glyph-name="W" horiz-adv-x="869" d="M431 492L411 572Q396 628 380 645T320 670V687H584V670Q533 666 520 650T518 590L633 139H637L740 531Q758 606 746 632T676 670V687H884V670Q837 660 814 630T771 526L626 -14H570L445 439L302 -14H245L90
574Q76 625 59 643T-6 670V687H257V670Q211 666 200 649T199 590L312 136H316L431 492Z" />
<glyph unicode="X" glyph-name="X" horiz-adv-x="600" d="M327 406L412 548Q445 604 436 633T375 670V687H591V670Q544 661 514 635T439 536L344 382L503 95Q525 54 543 40T610 18V0H331V18Q385 23 395 41T384 95L276 299L181 139Q148 81 157 53T218 18V0H1V18Q48
26 77 51T154 151L259 323L112 592Q90 632 71 646T3 670V687H283V670Q232 666 221 645T231 590L327 406Z" />
<glyph unicode="Y" glyph-name="Y" horiz-adv-x="578" d="M327 338L430 549Q461 610 454 634T389 670V687H590V670Q547 661 522 638T465 549L343 304V82Q343 50 361 36T433 19V0H145V19Q199 21 217 35T235 82V294L88 595Q69 634 52 648T-5 670V687H272V670Q215
665 202 646T209 593L327 338Z" />
<glyph unicode="Z" glyph-name="Z" horiz-adv-x="553" d="M31 0L30 17L395 662H252Q200 662 162 619T74 465L52 467L67 687H522L523 670L158 25H318Q373 25 408 69T499 233L522 231L508 0H31Z" />
<glyph unicode="[" glyph-name="bracketleft" horiz-adv-x="317" d="M81 -163V753H335V728H169V-138H335V-163H81Z" />
<glyph unicode="\" glyph-name="backslash" horiz-adv-x="381" d="M347 -212L173 261L-5 736H32L206 261L383 -212H347Z" />
<glyph unicode="]" glyph-name="bracketright" horiz-adv-x="317" d="M-17 -163V-138H148V728H-17V753H236V-163H-17Z" />
<glyph unicode="^" glyph-name="asciicircum" horiz-adv-x="309" d="M17 526L143 751H169L292 526H262L155 657L48 526H17Z" />
<glyph unicode="_" glyph-name="underscore" horiz-adv-x="385" d="M-2 0V35H386V0H-2Z" />
<glyph unicode="`" glyph-name="grave" horiz-adv-x="213" d="M144 530L74 607Q44 642 33 660T22 692Q22 709 35 722T67 735Q89 735 101 717T131 644L171 530H144Z" />
<glyph unicode="a" glyph-name="a" horiz-adv-x="429" d="M145 -7Q90 -7 61 25T32 104Q32 171 86 205Q123 229 196 248T271 269V335Q271 392 254 418T199 444Q157 444 136 418Q157 392 157 366T143 324T102 307Q77 307 63 324T49 366Q49 410 95 438T215 467Q368
467 368 324V90Q368 51 381 40T431 40L436 25Q389 -5 350 -5Q315 -5 298 11T275 67H272Q215 -7 145 -7ZM198 45Q241 45 271 96V247Q192 227 164 202T136 126Q136 45 198 45Z" />
<glyph unicode="b" glyph-name="b" horiz-adv-x="475" d="M58 -14L60 76V639Q60 666 47 677T-7 689V707L158 712V409Q216 469 285 469Q360 469 402 407T445 244Q445 138 394 65T256 -8Q180 -8 121 40L74 -14H58ZM245 15Q340 15 340 236Q340 324 314 374T239 425Q198
425 158 383V96Q185 15 245 15Z" />
<glyph unicode="c" glyph-name="c" horiz-adv-x="405" d="M221 -8Q134 -8 82 57T29 225Q29 332 87 401T236 470Q304 470 343 438T383 364Q383 337 369 319T330 301Q303 301 288 317T273 358Q273 397 303 416Q283 447 239 447Q191 447 162 393T133 244Q133 151
166 94T261 36Q325 36 375 117L391 106Q330 -8 221 -8Z" />
<glyph unicode="d" glyph-name="d" horiz-adv-x="478" d="M196 -8Q119 -8 74 56T28 224Q28 332 83 400T226 469Q275 469 313 447V639Q313 666 300 677T247 689V707L411 712V55Q411 35 424 26T472 16V0L315 -4V51Q265 -8 196 -8ZM240 37Q281 37 313 77V399Q283
445 235 445T160 388T133 228Q133 140 160 89T240 37Z" />
<glyph unicode="e" glyph-name="e" horiz-adv-x="422" d="M226 -8Q136 -8 83 57T29 226Q29 331 85 400T225 470Q310 470 355 404T395 244H133V240V234Q133 144 166 90T262 35Q330 35 381 123L397 112Q337 -8 226 -8ZM219 447Q139 447 133 265L293 266Q300 347
282 397T219 447Z" />
<glyph unicode="f" glyph-name="f" horiz-adv-x="291" d="M26 0V18Q63 19 74 26T86 56V425H12V442L86 461V492Q86 612 137 669Q182 718 252 718Q306 718 336 695T367 637Q367 611 353 595T314 578Q291 578 276 593T260 639Q260 664 274 683Q261 696 244 696Q222
696 208 678Q184 652 184 551V459H294V425H184V56Q184 34 200 27T264 18V0H26Z" />
<glyph unicode="g" glyph-name="g" horiz-adv-x="414" d="M215 -175Q272 -175 308 -148T345 -74Q345 -41 320 -24T232 -7H144Q84 -29 84 -83Q84 -125 117 -150T215 -175ZM209 178Q276 178 276 312Q276 375 257 410T202 446Q135 446 135 312T209 178ZM206 467Q248
467 286 449Q321 528 375 528Q400 528 413 515T427 479Q427 461 417 449T389 437T360 450T348 486Q321 478 304 439Q373 397 373 314Q373 244 324 201T205 157Q171 157 144 167Q101 146 101 121Q101 83 185 83H246Q329 83 369 54T409 -39Q409 -104 351 -150T192
-196Q111 -196 63 -169T15 -96Q15 -63 43 -37T119 -1V2Q79 15 63 34T46 85Q46 138 118 176Q38 216 38 310Q38 380 87 423T206 467Z" />
<glyph unicode="h" glyph-name="h" horiz-adv-x="491" d="M12 0V18Q48 19 60 26T72 56V639Q72 666 60 677T6 689V707L170 712V372Q235 466 319 466Q370 466 397 433T424 338V56Q424 33 435 26T484 18V0H276V18Q305 19 315 26T326 56V314Q326 411 260 411Q209 411
170 342V56Q170 33 180 26T220 18V0H12Z" />
<glyph unicode="i" glyph-name="i" horiz-adv-x="259" d="M157 552T130 552T87 569T70 616T86 664T130 683T173 665T190 618T174 571ZM22 0V18Q59 19 71 26T84 56V390Q84 415 71 427T22 441V458L182 463V56Q182 33 193 26T244 18V0H22Z" />
<glyph unicode="j" glyph-name="j" horiz-adv-x="254" d="M158 552T131 552T88 569T71 616T87 664T131 683T174 665T191 618T175 571ZM33 -196Q-17 -196 -46 -175T-75 -121Q-75 -96 -60 -80T-21 -64T16 -79T31 -121Q31 -145 12 -164Q24 -174 40 -174Q86 -174 86
-84V390Q86 416 72 428T17 441V458L183 463V23Q183 -49 173 -88T138 -155Q101 -196 33 -196Z" />
<glyph unicode="k" glyph-name="k" horiz-adv-x="465" d="M171 185V56Q171 34 180 26T214 17V0H12V18Q49 19 61 26T73 56V639Q73 666 60 677T7 689V707L171 712V219L293 363Q346 429 262 444V461H452V444Q416 438 392 422T328 360L275 303L400 88Q424 45 438 33T480
17V0H273V17Q304 21 310 33T302 71L212 229L171 185Z" />
<glyph unicode="l" glyph-name="l" horiz-adv-x="256" d="M20 0V18Q57 19 69 26T81 56V639Q81 666 68 677T14 689V707L178 712V56Q178 33 190 26T239 18V0H20Z" />
<glyph unicode="m" glyph-name="m" horiz-adv-x="740" d="M280 0V18Q309 19 318 26T327 56V314Q327 411 263 411Q216 411 179 342V56Q179 33 187 26T224 18V0H21V18Q58 19 69 26T81 56V390Q81 415 68 427T21 441V458L177 463V371Q240 466 323 466Q408 466 422
374Q488 466 570 466Q620 466 646 433T672 338V56Q672 33 683 26T732 18V0H529V18Q557 19 565 26T574 56V314Q574 411 511 411Q465 411 425 346V339V56Q425 33 435 26T478 18V0H280Z" />
<glyph unicode="n" glyph-name="n" horiz-adv-x="499" d="M21 0V18Q58 19 69 26T81 56V390Q81 415 68 427T21 441V458L177 463V371Q241 466 328 466Q378 466 405 433T432 338V56Q432 33 443 26T492 18V0H284V18Q313 19 323 26T334 56V315Q334 364 319 387T268
411Q216 411 179 342V56Q179 33 189 26T228 18V0H21Z" />
<glyph unicode="o" glyph-name="o" horiz-adv-x="463" d="M232 -8Q142 -8 86 57T29 230Q29 335 87 402T232 470Q321 470 377 405T434 233Q434 126 377 59T232 -8ZM235 14Q283 14 305 64T328 231Q328 346 303 396T228 447Q180 447 158 398T135 231Q135 14 235 14Z" />
<glyph unicode="p" glyph-name="p" horiz-adv-x="480" d="M8 -186V-168Q44 -167 56 -160T68 -130V390Q68 415 55 427T8 441V458L164 463V400Q225 469 294 469Q366 469 408 407T451 239Q451 131 401 62T268 -7Q214 -7 166 20V-129Q166 -152 181 -159T245 -168V-186H8ZM252
16Q346 16 346 232Q346 320 322 372T250 424Q205 424 166 374V88Q189 16 252 16Z" />
<glyph unicode="q" glyph-name="q" horiz-adv-x="473" d="M236 -186V-169Q283 -168 299 -161T315 -131V52Q258 -7 192 -7Q115 -7 72 56T28 218Q28 322 81 395T222 469Q295 469 352 421L399 474H415L413 385V-131Q413 -153 424 -160T473 -169V-186H236ZM237 37Q275
37 315 79V365Q288 446 233 446Q133 446 133 226Q133 140 160 89T237 37Z" />
<glyph unicode="r" glyph-name="r" horiz-adv-x="367" d="M21 0V18Q58 19 69 26T81 56V390Q81 415 68 427T21 441V458L177 463V372Q227 468 294 468Q328 468 346 448T364 399Q364 371 349 353T310 335Q285 335 270 351T254 394Q254 404 258 418Q213 412 179 340V56Q179
34 193 27T252 18V0H21Z" />
<glyph unicode="s" glyph-name="s" horiz-adv-x="370" d="M36 -8V153H57Q98 76 129 46T199 15Q232 15 251 37T270 90Q270 128 245 149T162 191Q97 214 68 242T38 323Q38 387 79 428T188 469Q239 469 280 441L301 469H319V324H298Q262 391 237 419T179 447Q149
447 130 426T110 373Q110 340 134 322T213 283Q278 260 309 231T340 146Q340 80 300 36T191 -8Q166 -8 135 2T84 26L54 -8H36Z" />
<glyph unicode="t" glyph-name="t" horiz-adv-x="312" d="M189 -9Q82 -9 82 119V425H5V441L83 461V588L180 624V459H303V426H180V111Q180 71 192 54T229 37Q266 37 295 99L312 90Q271 -9 189 -9Z" />
<glyph unicode="u" glyph-name="u" horiz-adv-x="490" d="M180 -6Q128 -6 100 27T71 122V394Q71 418 58 429T10 442V459L169 464V146Q169 50 236 50Q284 50 323 116V394Q323 418 310 429T262 442V459L420 464V56Q420 36 432 27T481 17V0H324V87Q265 -6 180 -6Z" />
<glyph unicode="v" glyph-name="v" horiz-adv-x="428" d="M191 -7L61 370Q47 411 34 425T-10 444V461H206V444Q155 440 155 409Q155 397 162 377L249 103H252L326 320Q343 374 343 397Q343 435 287 444V461H442V444Q396 437 370 361L241 -7H191Z" />
<glyph unicode="w" glyph-name="w" horiz-adv-x="645" d="M321 319L307 370Q295 413 283 427T242 444V461H445V444Q395 440 395 410Q395 401 400 381L474 110H478L540 322Q554 373 554 394Q554 417 541 428T499 444V461H659V444Q605 438 581 360L469 -7H418L334
275L234 -7H184L62 370Q49 412 36 426T-8 444V461H199V444Q153 440 153 409Q153 399 158 381L242 107H246L321 319Z" />
<glyph unicode="x" glyph-name="x" horiz-adv-x="442" d="M243 278L288 345Q317 390 313 413T270 444V461H440V444Q406 438 383 419T326 350L259 256L368 79Q390 45 404 33T447 17V0H236V17Q273 22 279 34T269 71L201 191L152 116Q121 69 126 47T174 17V0H1V17Q34
24 58 43T114 111L185 213L81 383Q59 417 45 428T1 444V461H211V444Q175 439 170 427T180 390L243 278Z" />
<glyph unicode="y" glyph-name="y" horiz-adv-x="430" d="M211 -5L64 370Q49 410 35 425T-10 444V461H210V444Q173 441 163 426T164 382L257 122L330 326Q351 390 343 413T288 444V461H447V444Q400 437 373 359L227 -40Q195 -130 164 -163T93 -196Q59 -196 39
-176T18 -127Q18 -102 32 -84T72 -66Q95 -66 109 -82T124 -123Q124 -146 111 -164Q134 -161 155 -132T204 -26L211 -5Z" />
<glyph unicode="z" glyph-name="z" horiz-adv-x="408" d="M26 0L25 16L275 436H195Q154 436 127 407T63 301L44 303L54 461H385L387 445L137 26H223Q268 26 296 56T361 167L380 165L370 0H26Z" />
<glyph unicode="{" glyph-name="braceleft" horiz-adv-x="363" d="M376 -157Q150 -154 150 30Q150 56 157 107T165 175Q165 229 134 257T26 293V316Q103 324 134 350T165 431Q165 448 158 497T150 572Q150 661 206 705T376 753V736Q303 729 278 693T253 580Q253
565 254 527T256 467Q256 392 219 358T88 308V300Q180 287 218 251T256 139Q256 116 255 76T253 21Q252 -58 277 -95T376 -139V-157Z" />
<glyph unicode="|" glyph-name="bar" horiz-adv-x="258" d="M112 -212V736H145V-212H112Z" />
<glyph unicode="}" glyph-name="braceright" horiz-adv-x="363" d="M-12 -157V-139Q60 -133 85 -96T111 21Q111 36 109 76T107 139Q108 214 146 250T275 300V308Q182 323 145 357T107 467Q107 489 109 527T111 580Q111 656 86 692T-12 736V753Q102 749 158 705T214
572Q214 546 207 497T199 431Q199 377 229 351T338 316V293Q261 286 230 258T199 175Q199 158 206 107T214 30Q214 -154 -12 -157Z" />
<glyph unicode="~" glyph-name="asciitilde" horiz-adv-x="343" d="M36 272Q43 340 62 370T120 400Q143 400 187 374T246 348Q271 348 284 405H308Q301 337 282 307T224 277Q202 277 158 303T98 329Q72 329 60 272H36Z" />
</font>
</defs>
</svg>
