<?xml version="1.0" standalone="no"?> <!DOCTYPE svg PUBLIC "-//W3C//DTD SVG 1.0//EN" "http://www.w3.org/TR/2001/REC-SVG-20010904/DTD/svg10.dtd" > <svg xmlns="http://www.w3.org/2000/svg" width="100%" height="100%">
<defs >
<font id="chronicledisp-semiboldital" horiz-adv-x="415" ><font-face
    font-family="Chronicle Display Semi"
    units-per-em="1000"
    panose-1="0 0 0 0 0 0 0 0 0 0"
    ascent="800"
    descent="-200"
    alphabetic="0" />
<missing-glyph horiz-adv-x="500" d="M0 -200V800H500V-200H0ZM71 750L250 360L429 750H71ZM50 -76L222 300L50 676V-76ZM450 676L278 300L450 -76V676ZM250 240L71 -150H429L250 240Z" />
<glyph unicode=" " glyph-name="space" horiz-adv-x="184" />
<glyph unicode="!" glyph-name="exclam" horiz-adv-x="279" d="M141 187L127 190Q145 286 164 451T195 658Q213 725 261 725Q287 725 302 708T317 660Q317 629 294 566T222 389T141 187ZM96 -16Q67 -16 48 3T28 50Q28 78 48 97T96 117T144 98T164 51Q164 23 144
4T96 -16Z" />
<glyph unicode="&quot;" glyph-name="quotedbl" horiz-adv-x="444" d="M107 427L98 433L148 547Q191 643 212 673T261 704Q281 704 294 691T307 661Q307 639 287 610T201 516L107 427ZM299 427L290 433L340 547Q383 643 404 673T453 704Q473 704 486 691T499 661Q499
639 479 610T393 516L299 427Z" />
<glyph unicode="#" glyph-name="numbersign" horiz-adv-x="703" d="M391 703L321 477H531L601 703H626L556 477H711L710 456H550L472 204H640L639 183H465L396 -43H371L440 183H230L161 -43H136L205 183H51L52 204H212L290 456H123L124 477H296L366 703H391ZM315
456L237 204H447L525 456H315Z" />
<glyph unicode="$" glyph-name="dollar" horiz-adv-x="570" d="M215 -68L188 -62L213 22Q132 31 82 67T32 158Q32 190 52 214T109 239Q135 239 152 222T169 180T152 137T108 112Q117 90 149 72T221 44L292 290Q260 305 241 314T198 339T161 370T139 407T130 454Q130
533 201 588T381 643Q393 643 399 642L420 718L447 712L426 639Q495 629 541 594T587 509Q587 479 568 457T518 434Q492 434 475 449T458 490Q458 511 471 529T508 555Q487 601 419 618L351 388Q352 387 353 387Q355 386 356 386Q384 372 394 367T429 348T464 323T489
296T508 259T514 216Q514 141 444 80T267 19Q249 19 240 20L215 -68ZM413 162Q413 230 314 279L245 40Q252 39 267 39Q336 39 374 73T413 162ZM229 511Q229 474 253 450T330 398L394 622Q392 622 386 622T377 623Q314 623 272 593T229 511Z" />
<glyph unicode="%" glyph-name="percent" horiz-adv-x="812" d="M417 616Q457 594 509 594Q598 594 708 691H736L163 -26H116L659 624L656 627Q579 566 480 566Q443 566 424 570Q424 510 396 446T314 335T199 288Q143 288 112 320T81 409Q81 503 158 589T329 676Q398
676 417 616ZM557 -14Q500 -14 469 18T438 107Q438 201 515 288T686 375Q731 375 756 347T781 268Q781 173 714 80T557 -14ZM568 10Q617 10 662 54T731 156T756 264Q756 339 700 339Q636 339 576 251T515 84Q515 10 568 10ZM399 578Q352 594 311 633Q253 611 206
532T158 385Q158 311 211 311Q260 311 305 355T374 458T399 566V578Z" />
<glyph unicode="&amp;" glyph-name="ampersand" horiz-adv-x="708" d="M352 380Q470 445 470 576Q470 613 452 633T403 653Q360 653 328 617T296 524Q296 455 352 380ZM260 336Q133 270 133 152Q133 101 162 71T244 40Q311 40 381 109Q350 220 260 336ZM459 193Q562
366 643 366Q678 366 697 347T717 296Q717 269 700 249T654 228Q630 228 613 243T595 282Q595 292 599 303L597 306Q569 296 541 269T467 176Q491 98 518 72T586 45Q616 45 656 75L664 67Q595 -17 527 -17Q420 -17 386 93Q295 -17 182 -17Q104 -17 62 24T19 127Q19
204 79 262T251 349Q226 387 216 414T206 478Q206 555 266 611T404 667Q474 667 515 633T557 546Q557 493 506 446T362 366Q430 282 459 193Z" />
<glyph unicode="&apos;" glyph-name="quotesingle" horiz-adv-x="253" d="M107 427L98 433L148 547Q191 643 212 673T261 704Q281 704 294 691T307 661Q307 639 287 610T201 516L107 427Z" />
<glyph unicode="(" glyph-name="parenleft" horiz-adv-x="383" d="M314 -166Q209 -114 144 -17T79 207Q79 311 123 409T237 577T389 696T553 764L556 753Q440 713 353 616T223 401T181 163Q181 51 213 -23T319 -157L314 -166Z" />
<glyph unicode=")" glyph-name="parenright" horiz-adv-x="383" d="M-134 -164L-137 -153Q-20 -113 67 -16T197 199T239 437Q239 550 207 624T101 757L106 766Q211 714 276 617T341 393Q341 289 297 191T183 23T31 -96T-134 -164Z" />
<glyph unicode="*" glyph-name="asterisk" horiz-adv-x="423" d="M357 392Q324 376 306 420Q299 436 290 541L281 543Q279 540 263 514T234 468T213 442Q180 413 156 440Q132 466 166 496Q181 510 276 548V558Q170 582 158 590Q120 612 138 644Q158 674 195 651Q220
636 279 562L288 566Q279 676 282 689Q293 731 328 725Q344 722 351 708T353 673Q351 664 340 643T312 595T293 564L300 559Q303 560 331 572T382 592T415 601Q459 604 462 570Q465 534 421 529Q411 528 387 532T335 543T300 551L295 545L318 518Q341 492 355 475T373
448Q389 406 357 392Z" />
<glyph unicode="+" glyph-name="plus" horiz-adv-x="552" d="M377 547L321 336H531L525 314H315L258 100H232L289 314H77L83 336H295L351 547H377Z" />
<glyph unicode="," glyph-name="comma" horiz-adv-x="235" d="M-69 -146L-73 -134Q50 -81 77 -13L73 -10Q45 -14 27 4T8 50T27 97T75 117Q105 117 124 95T144 42Q144 -75 -69 -146Z" />
<glyph unicode="-" glyph-name="hyphen" horiz-adv-x="366" d="M57 239L68 280H324L313 239H57Z" />
<glyph unicode="." glyph-name="period" horiz-adv-x="235" d="M104 -16T76 -16T28 3T8 50Q8 78 28 97T77 117Q105 117 124 98T144 51Q144 23 124 4Z" />
<glyph unicode="/" glyph-name="slash" horiz-adv-x="457" d="M-119 -215L222 265L559 746H591L250 265L-87 -215H-119Z" />
<glyph unicode="0" glyph-name="zero" horiz-adv-x="615" d="M159 160Q159 7 260 7Q316 7 365 59T444 188T492 349T509 502Q509 656 408 656Q352 656 303 604T224 474T176 313T159 160ZM618 430Q618 358 592 281T522 138T408 29T260 -14Q165 -14 108 50T50 232Q50
304 76 381T146 524T260 633T408 676Q503 676 560 612T618 430Z" />
<glyph unicode="1" glyph-name="one" horiz-adv-x="422" d="M-24 0L-21 13Q58 17 85 27T120 70L247 547Q261 598 243 616T142 638L146 651L392 670L230 70Q221 38 242 28T343 13L340 0H-24Z" />
<glyph unicode="2" glyph-name="two" horiz-adv-x="550" d="M-10 0L6 70L251 242Q357 315 402 380T448 528Q448 658 342 658Q304 658 269 639T213 587Q275 568 275 510Q275 480 254 458T202 435Q170 435 151 456T131 512Q131 579 197 627T357 676Q455 676 509
632T564 519Q564 448 495 383T219 188L77 94V91H334Q387 91 415 111T485 196L498 195L442 0H-10Z" />
<glyph unicode="3" glyph-name="three" horiz-adv-x="557" d="M214 332L220 354Q353 354 411 404Q437 428 451 467T466 545Q466 658 354 658Q313 658 280 641T232 602Q283 583 283 533Q283 505 265 484T214 462Q184 462 164 482T144 531Q144 593 206 634T367 676Q467
676 522 634T578 525Q578 457 506 405T292 342L291 337Q399 330 452 288T506 179Q506 95 429 41T235 -14Q136 -14 80 26T24 125Q24 162 45 186T99 210Q128 210 146 190T165 142Q165 85 106 65Q116 41 150 23T228 4Q296 4 336 44Q392 100 392 200Q392 326 214 332Z"
/>
<glyph unicode="4" glyph-name="four" horiz-adv-x="582" d="M559 206H418L380 62Q372 35 390 25T467 13L463 0H157L159 13Q255 14 267 62L306 206H14L27 252L468 662H539L436 273H575L559 206ZM399 567L84 273H324L403 567H399Z" />
<glyph unicode="5" glyph-name="five" horiz-adv-x="551" d="M220 -14Q138 -14 83 25T27 125Q27 158 48 183T104 209Q134 209 151 190T169 144Q169 85 113 66Q135 4 230 4Q276 4 310 30T362 97T388 178T397 258Q397 386 289 386Q207 386 137 332L116 339L211 662H597L559
564H205L140 355Q226 409 306 409Q400 409 455 365T511 239Q511 136 427 61T220 -14Z" />
<glyph unicode="6" glyph-name="six" horiz-adv-x="565" d="M248 -14Q153 -14 101 47T49 203Q49 402 198 532T603 680V666Q267 605 182 343L185 340Q265 445 370 445Q451 445 493 396T536 270Q536 162 454 74T248 -14ZM249 6Q301 6 343 56T405 174T426 307Q426
422 345 422Q272 422 212 338T152 145Q152 6 249 6Z" />
<glyph unicode="7" glyph-name="seven" horiz-adv-x="519" d="M30 -10V-3L529 568H257Q211 568 185 547T115 447H103L162 662H609L612 651L338 271L146 -10H30Z" />
<glyph unicode="8" glyph-name="eight" horiz-adv-x="552" d="M250 -14Q148 -14 93 31T37 141Q37 204 89 253T232 329Q184 360 160 393T136 472Q136 553 206 614T376 676Q469 676 520 634T571 530Q571 475 523 429T388 355Q444 322 476 283T508 188Q508 98 431
42T250 -14ZM262 311Q254 315 250 318Q194 291 164 243T134 144Q134 84 168 45T258 6Q319 6 359 42T399 151Q399 201 366 236T262 311ZM241 518Q241 474 273 439T367 368Q474 432 474 543Q474 596 447 626T369 656Q315 656 278 619T241 518Z" />
<glyph unicode="9" glyph-name="nine" horiz-adv-x="560" d="M377 676Q471 676 523 614T575 455Q575 259 426 130T21 -17L22 -3Q363 61 438 314L435 316Q362 218 259 218Q177 218 133 267T88 394Q88 501 171 588T377 676ZM373 656Q323 656 282 607T220 491T199
361Q199 241 285 241Q355 241 412 323T470 518Q470 581 446 618T373 656Z" />
<glyph unicode=":" glyph-name="colon" horiz-adv-x="241" d="M107 -16T79 -16T31 3T11 50Q11 78 31 97T80 117Q108 117 127 98T147 51Q147 23 127 4ZM151 274Q122 274 103 293T83 340Q83 368 103 387T152 407Q180 407 199 388T219 341Q219 313 199 294T151 274Z" />
<glyph unicode=";" glyph-name="semicolon" horiz-adv-x="241" d="M151 274Q122 274 103 293T83 340Q83 368 103 387T152 407Q180 407 199 388T219 341Q219 313 199 294T151 274ZM-66 -146L-70 -134Q53 -81 80 -13L76 -10Q48 -14 30 4T11 50T30 97T78 117Q108
117 127 95T147 42Q147 -75 -66 -146Z" />
<glyph unicode="&lt;" glyph-name="less" horiz-adv-x="550" d="M444 101L106 314L112 337L557 551L548 519L137 323L452 129L444 101Z" />
<glyph unicode="=" glyph-name="equal" horiz-adv-x="543" d="M487 215H49L54 237H492L487 215ZM537 413H99L104 435H542L537 413Z" />
<glyph unicode="&gt;" glyph-name="greater" horiz-adv-x="550" d="M154 551L492 338L486 315L41 101L50 133L461 329L146 523L154 551Z" />
<glyph unicode="?" glyph-name="question" horiz-adv-x="475" d="M187 187L160 193L202 339Q416 395 416 591Q416 706 302 706Q257 706 225 685T179 638Q235 623 237 568Q238 544 220 525T173 506Q143 506 124 525T104 574Q103 634 162 679T305 724Q404 724 464
675T525 551Q525 465 447 407T226 325L187 187ZM143 -16Q114 -16 95 3T75 50Q75 78 95 97T144 117Q172 117 191 98T211 51Q211 23 191 4T143 -16Z" />
<glyph unicode="@" glyph-name="at" horiz-adv-x="909" d="M452 -146Q283 -146 180 -47T76 217Q76 417 209 550T539 684Q683 684 778 597T873 376Q873 234 796 147T621 60Q504 60 502 143H498Q440 68 374 68Q321 68 292 100T262 191Q262 296 337 387T500 478Q574
478 597 416H599L621 470L711 479L652 339L598 192Q585 159 585 134Q585 83 640 83Q717 83 784 167T851 375Q851 500 763 582T537 665Q412 665 311 604T154 441T98 217Q98 66 194 -30T454 -127Q592 -127 713 -44L723 -58Q598 -146 452 -146ZM415 109Q456 109 505
178L585 384Q580 418 561 437T513 456Q474 456 436 410T375 302T353 187Q353 109 415 109Z" />
<glyph unicode="A" glyph-name="A" horiz-adv-x="689" d="M-67 0L-63 13Q-7 24 32 59T121 171L462 709H507L589 109Q597 53 612 37T683 13L679 0H365L369 13Q439 17 457 34T470 101L450 271H213L141 154Q97 82 105 53T179 13L175 0H-67ZM447 292L412 585H408L225
292H447Z" />
<glyph unicode="B" glyph-name="B" horiz-adv-x="681" d="M295 376H367Q424 376 465 393T527 439T557 500T566 569Q566 625 534 651T427 677H375L295 376ZM199 20H307Q363 20 403 38T466 88T498 156T508 237Q508 296 470 325T347 355H289L199 20ZM153 684L156
697H430Q562 697 623 657T684 553Q684 482 621 431T437 366L436 363Q633 342 633 206Q633 122 547 61T297 0H-30L-27 13Q41 17 64 28T96 67L246 630Q253 656 236 668T153 684Z" />
<glyph unicode="C" glyph-name="C" horiz-adv-x="696" d="M338 -17Q216 -17 138 64T59 275Q59 384 111 483T264 648T488 714Q586 714 665 662L720 711H736L671 474H655Q620 605 588 650T482 695Q403 695 332 626T222 454T182 252Q182 143 234 83T383 22Q520 22
647 191L662 180Q523 -17 338 -17Z" />
<glyph unicode="D" glyph-name="D" horiz-adv-x="761" d="M96 67L246 630Q253 656 236 668T153 684L156 697H419Q587 697 673 620T759 410Q759 332 728 257T639 125Q516 0 322 0H-30L-27 13Q41 17 64 28T96 67ZM199 20H324Q429 20 507 98Q570 162 604 265T638
469Q638 571 591 624T434 677H375L199 20Z" />
<glyph unicode="E" glyph-name="E" horiz-adv-x="687" d="M156 697H727L674 484H658Q651 521 647 539T636 582T622 619T604 644T579 663T546 672T501 676H375L295 378H358Q415 378 441 398T520 498H535L465 228H450Q445 262 443 276T435 310T425 335T410 348T386
356T353 358H290L200 21H347Q389 21 421 30T478 52T529 94T574 151T626 229H643L577 0H-30L-27 13Q41 17 64 28T96 67L246 630Q253 656 236 668T153 684L156 697Z" />
<glyph unicode="F" glyph-name="F" horiz-adv-x="650" d="M313 0H-30L-27 13Q41 17 64 28T96 67L246 630Q253 656 236 668T153 684L156 697H727L672 477H656Q649 516 645 534T634 579T621 617T603 642T578 662T545 672T501 676H375L292 366H355Q413 366 438 384T515
480H530L461 211H446Q443 235 440 253T435 286T428 310T418 328T403 339T382 344T353 346H287L212 68Q204 39 223 28T316 13L313 0Z" />
<glyph unicode="G" glyph-name="G" horiz-adv-x="735" d="M739 711L677 484H661Q621 613 590 654T487 695Q402 695 330 623T220 444T182 230Q182 129 232 66T363 2Q430 2 484 35L542 254Q549 281 532 292T448 308L451 321H750L747 308Q698 305 681 293T656 252L597
46Q469 -17 353 -17Q225 -17 142 64T59 275Q59 382 111 482T264 648T488 714Q592 714 671 664L723 711H739Z" />
<glyph unicode="H" glyph-name="H" horiz-adv-x="830" d="M407 0L410 13Q473 17 494 28T524 69L600 351H288L212 68Q205 40 223 29T302 13L299 0H-30L-27 13Q41 17 64 28T96 67L246 630Q253 656 236 668T153 684L156 697H480L477 684Q413 680 392 668T363 629L294
372H606L675 630Q682 656 665 668T585 684L588 697H917L914 684Q848 681 823 669T791 631L641 68Q633 40 650 29T734 13L731 0H407Z" />
<glyph unicode="I" glyph-name="I" horiz-adv-x="423" d="M501 684Q433 681 407 670T374 631L223 68Q215 37 234 27T324 13L321 0H-24L-21 13Q48 17 73 28T106 67L257 630Q264 658 245 669T157 684L160 697H504L501 684Z" />
<glyph unicode="J" glyph-name="J" horiz-adv-x="577" d="M172 -17Q91 -17 44 19T-4 109Q-4 146 21 175T82 205Q112 205 130 187T148 140Q148 107 127 84T68 55Q79 32 105 17T165 1Q220 1 254 42T315 177L436 630Q444 658 424 669T332 684L335 697H684L681 684Q613
681 587 670T553 631L439 208Q378 -17 172 -17Z" />
<glyph unicode="K" glyph-name="K" horiz-adv-x="773" d="M849 697L846 684Q781 671 739 648T613 556L454 426L595 115Q622 55 642 38T717 13L714 0H394L397 13Q463 19 477 36T471 100L363 351L267 273L212 68Q205 40 222 29T294 13L291 0H-30L-27 13Q41 17 64
28T96 67L246 630Q253 656 236 668T153 684L156 697H480L477 684Q413 680 392 668T363 629L276 305L594 567Q628 595 637 620T631 662T573 684L576 697H849Z" />
<glyph unicode="L" glyph-name="L" horiz-adv-x="640" d="M363 629L200 21H324Q360 21 387 29T436 48T484 92T532 152T594 241H613L542 0H-30L-27 13Q41 17 64 28T96 67L246 630Q253 656 236 668T153 684L156 697H482L479 684Q434 682 410 675T376 657T363 629Z" />
<glyph unicode="M" glyph-name="M" horiz-adv-x="975" d="M148 684L151 697H396L471 153H475L823 697H1063L1060 684Q994 681 969 669T936 631L786 68Q778 40 796 29T880 13L877 0H553L556 13Q619 17 641 28T671 69L824 641H818L404 -4H380L286 641H279L150 149Q130
79 147 51T236 13L233 0H-36L-33 13Q35 17 69 47T122 149L244 616Q253 647 233 663T148 684Z" />
<glyph unicode="N" glyph-name="N" horiz-adv-x="803" d="M346 697L624 143H625L732 546Q751 620 733 647T641 684L644 697H908L905 684Q834 673 806 646T758 546L609 -15H574L268 595H267L149 152Q129 79 146 51T237 13L234 0H-34L-31 13Q40 23 71 52T121 152L238
589Q247 625 226 653T148 684L151 697H346Z" />
<glyph unicode="O" glyph-name="O" horiz-adv-x="761" d="M339 -17Q218 -17 139 62T59 272Q59 351 90 430T175 572T309 674T479 714Q601 714 680 635T759 426Q759 319 707 218T557 50T339 -17ZM334 2Q419 2 491 79T602 267T640 485Q640 583 601 639T485 695Q399
695 327 618T217 430T179 212Q179 113 217 58T334 2Z" />
<glyph unicode="P" glyph-name="P" horiz-adv-x="642" d="M282 326H346Q396 326 434 341T496 380T535 436T555 498T561 561Q561 622 531 649T432 677H375L282 326ZM153 684L156 697H422Q559 697 620 651T681 532Q681 490 662 451T606 379T503 326T354 306H276L212
68Q205 40 223 29T302 13L299 0H-30L-27 13Q41 17 64 28T96 67L246 630Q253 656 236 668T153 684Z" />
<glyph unicode="Q" glyph-name="Q" horiz-adv-x="761" d="M59 273Q59 379 111 479T261 647T479 714Q601 714 680 635T759 426Q759 348 728 270T644 129T513 26T345 -15Q375 -29 403 -59T449 -117T490 -166T537 -188Q554 -188 564 -179T575 -155Q575 -143 557 -125T539
-88Q539 -64 556 -47T598 -30Q622 -30 639 -48T656 -93Q656 -146 608 -180T487 -215Q444 -215 409 -198T353 -157T312 -108T273 -67T230 -50Q193 -50 164 -68T96 -131L84 -119Q159 -20 255 -4Q166 20 113 94T59 273ZM640 485Q640 584 601 639T485 695Q400 695 328
618T217 431T179 214Q179 115 217 60T334 4Q419 4 491 81T602 268T640 485Z" />
<glyph unicode="R" glyph-name="R" horiz-adv-x="704" d="M290 360H354Q428 360 478 392T549 468T569 565Q569 622 538 649T435 677H375L290 360ZM153 684L156 697H428Q689 697 689 548Q689 473 626 421T432 352L431 349Q531 340 565 303T592 186L588 112Q583
50 599 30T677 8L674 -5Q644 -7 613 -7Q539 -7 506 6T466 47T467 123L477 206Q486 279 462 309T356 339H285L212 68Q205 40 223 29T302 13L299 0H-30L-27 13Q41 17 64 28T96 67L246 630Q253 656 236 668T153 684Z" />
<glyph unicode="S" glyph-name="S" horiz-adv-x="563" d="M-9 -17L55 225H70Q110 100 155 52T273 4Q342 4 384 44T427 145Q427 197 393 236T282 313Q203 353 167 389T131 489Q131 578 203 644T384 711Q464 711 544 668L602 717H618L563 494H546Q508 611 468 651T366
692Q307 692 268 653T228 556Q228 534 236 516T254 484T286 456T324 432T370 407Q444 368 481 327T519 224Q519 126 451 56T257 -14Q207 -14 153 0T63 35L7 -17H-9Z" />
<glyph unicode="T" glyph-name="T" horiz-adv-x="693" d="M241 67L404 677H367Q301 677 255 638T116 468H97L166 697H772L715 468H699Q689 514 685 534T672 583T658 623T643 647T622 666T596 673T560 677H520L358 68Q350 37 370 27T464 13L461 0H105L108 13Q181
17 207 28T241 67Z" />
<glyph unicode="U" glyph-name="U" horiz-adv-x="787" d="M342 629L243 257Q229 206 229 166Q229 94 268 56T386 17Q481 17 540 66T630 232L714 549Q732 618 713 646T622 684L625 697H889L886 684Q815 673 788 647T742 549L651 206Q622 97 553 40T347 -17Q234
-17 175 36T115 180Q115 218 127 263L225 630Q232 656 215 668T132 684L135 697H459L456 684Q392 680 371 668T342 629Z" />
<glyph unicode="V" glyph-name="V" horiz-adv-x="700" d="M832 684Q778 675 739 641T651 533L297 -14H261L180 596Q175 641 157 657T84 684L87 697H405L402 684Q332 680 312 665T296 607L354 121H359L620 530Q668 607 657 641T575 684L578 697H835L832 684Z" />
<glyph unicode="W" glyph-name="W" horiz-adv-x="1026" d="M300 606L347 138H351L574 498L564 595Q559 641 543 659T474 684L477 697H780L777 684Q712 681 695 665T681 606L720 142H725L943 522Q988 602 977 638T898 684L901 697H1150L1147 684Q1093 675 1054
639T973 529L664 -14H629L578 464L288 -14H252L184 595Q179 640 162 657T91 684L94 697H392L389 684Q326 681 311 665T300 606Z" />
<glyph unicode="X" glyph-name="X" horiz-adv-x="715" d="M329 0L332 13Q403 17 421 36T425 97L350 315L175 129Q128 81 135 50T200 13L197 0H-63L-60 13Q0 21 44 48T155 145L341 337L241 601Q224 644 203 661T123 684L126 697H454L451 684Q379 680 361 660T357
600L430 404L590 568Q638 619 631 648T564 684L567 697H827L824 684Q764 677 722 651T609 553L438 380L542 96Q557 54 579 37T661 13L658 0H329Z" />
<glyph unicode="Y" glyph-name="Y" horiz-adv-x="686" d="M633 554L422 307L358 68Q350 37 369 27T459 13L456 0H111L114 13Q183 17 208 28T241 67L306 307L206 611Q193 651 177 662T106 684L109 697H434L431 684Q349 681 329 666T318 618L411 329L605 562Q652
616 644 645T568 684L571 697H822L819 684Q761 675 729 652T633 554Z" />
<glyph unicode="Z" glyph-name="Z" horiz-adv-x="662" d="M593 676H421Q359 676 299 635T145 479L127 481L199 697H738L739 682L121 21H322Q386 21 442 63T595 228L610 226L542 0H-27L-28 15L593 676Z" />
<glyph unicode="[" glyph-name="bracketleft" horiz-adv-x="367" d="M-10 -165L239 764H532L526 743H329L91 -144H288L283 -165H-10Z" />
<glyph unicode="\" glyph-name="backslash" horiz-adv-x="457" d="M306 -215L227 265L144 746H172L251 265L334 -215H306Z" />
<glyph unicode="]" glyph-name="bracketright" horiz-adv-x="367" d="M-129 -166L-123 -145H74L312 742H115L120 763H413L164 -166H-129Z" />
<glyph unicode="^" glyph-name="asciicircum" horiz-adv-x="355" d="M92 535L302 762H318L412 535H388L286 656L122 535H92Z" />
<glyph unicode="_" glyph-name="underscore" horiz-adv-x="440" d="M-61 0L-53 31H391L383 0H-61Z" />
<glyph unicode="`" glyph-name="grave" horiz-adv-x="238" d="M297 528L188 628Q141 672 141 695Q141 712 154 725T185 738Q202 738 214 725T239 681L306 528H297Z" />
<glyph unicode="a" glyph-name="a" horiz-adv-x="535" d="M470 307L412 106Q402 71 402 54Q402 33 422 26T489 23V13Q434 -8 388 -8Q347 -8 328 4T309 49Q309 63 314 83L312 84Q277 34 243 13T164 -9Q103 -9 67 33T31 151Q31 269 115 368T300 468Q340 468 362
452T401 404L419 456L524 468L470 307ZM314 445Q268 445 226 392T162 270T139 150Q139 96 157 66T212 35Q265 35 315 123L386 360Q381 398 361 421T314 445Z" />
<glyph unicode="b" glyph-name="b" horiz-adv-x="517" d="M200 10Q249 10 292 60T358 179T381 314Q381 417 303 417Q260 417 208 369L127 56Q145 10 200 10ZM487 316Q487 239 450 165T342 41T190 -9Q92 -9 19 50L79 255L177 644Q184 669 166 680T93 695V707L304
717L213 394L216 392Q289 468 365 468Q419 468 453 428T487 316Z" />
<glyph unicode="c" glyph-name="c" horiz-adv-x="445" d="M294 468Q358 468 396 441T435 371Q435 344 419 326T376 307Q349 307 333 322T317 364Q317 379 328 397T358 425Q339 449 301 449Q256 449 217 404T157 295T135 172Q135 29 252 29Q331 29 391 116L405
106Q330 -9 212 -9Q133 -9 81 42T29 178Q29 291 108 379T294 468Z" />
<glyph unicode="d" glyph-name="d" horiz-adv-x="530" d="M583 717L414 112Q404 77 404 61Q404 38 423 29T494 23V13Q443 -8 390 -8Q349 -8 330 7T310 55Q310 69 312 79L310 80Q243 -9 165 -9Q106 -9 68 37T30 158Q30 231 68 303T167 421T294 468Q334 468 357
456T399 417L459 643Q465 668 447 680T374 695V707L583 717ZM309 445Q261 445 220 391T159 270T138 150Q138 98 158 70T216 42Q271 42 314 117L387 368Q378 402 358 423T309 445Z" />
<glyph unicode="e" glyph-name="e" horiz-adv-x="450" d="M449 365Q449 302 370 262T138 224Q133 200 133 168Q133 97 158 64T242 30Q281 30 320 53T389 114L402 103Q319 -9 200 -9Q126 -9 77 36T27 166Q27 283 111 375T313 468Q379 468 414 440T449 365ZM308
447Q257 447 208 385T141 240Q358 244 358 391Q358 447 308 447Z" />
<glyph unicode="f" glyph-name="f" horiz-adv-x="319" d="M374 436H256L184 97Q149 -71 99 -135T-43 -200Q-96 -200 -125 -180T-154 -126Q-154 -102 -138 -86T-97 -69T-58 -85T-43 -123Q-43 -156 -70 -172Q-57 -181 -38 -181Q-6 -181 15 -151T56 -31L159 436H46L53
458H162L173 501Q201 613 257 668T389 723Q445 723 478 699T511 636Q511 609 496 592T453 574Q427 574 412 590T396 632Q396 666 420 688Q409 704 384 704Q317 704 283 557L260 458H381L374 436Z" />
<glyph unicode="g" glyph-name="g" horiz-adv-x="519" d="M170 0Q111 0 72 43T32 160Q32 232 69 303T167 421T293 468Q362 468 401 411L417 456L523 468L469 306L381 -7Q352 -110 297 -155T134 -200Q57 -200 15 -171T-28 -103Q-28 -72 -10 -52T38 -31Q64 -31 78
-47T93 -88Q93 -124 57 -145Q79 -181 133 -181Q188 -181 223 -139T283 -13L307 72L304 73Q272 35 242 18T170 0ZM307 445Q259 445 219 391T159 271T139 151Q139 47 219 47Q270 47 310 107L386 364Q377 398 356 421T307 445Z" />
<glyph unicode="h" glyph-name="h" horiz-adv-x="539" d="M485 307L417 96Q407 64 407 51Q407 30 426 25T497 23V13Q446 -8 396 -8Q309 -8 309 54Q309 75 318 102L383 303Q394 339 394 361Q394 410 342 410Q285 410 208 343L123 0H15L62 162L184 644Q191 669 173
680T100 695V707L311 717L213 366L215 364Q260 411 310 438T402 466Q447 466 471 442T496 374Q496 341 485 307Z" />
<glyph unicode="i" glyph-name="i" horiz-adv-x="300" d="M196 614Q196 649 218 674T271 700Q292 700 306 687T320 648Q320 613 298 587T246 560Q225 560 211 574T196 614ZM250 27V17Q191 -8 134 -8Q48 -8 48 60Q48 78 56 107L144 391Q151 415 133 427T66 442V454L269
463L159 105Q150 78 150 61Q150 38 171 31T250 27Z" />
<glyph unicode="j" glyph-name="j" horiz-adv-x="278" d="M181 614Q181 649 203 674T256 700Q277 700 291 687T305 648Q305 613 283 587T231 560Q210 560 196 574T181 614ZM-61 -201Q-113 -201 -143 -181T-174 -126Q-174 -102 -158 -86T-117 -69T-78 -85T-63 -123Q-63
-156 -90 -172Q-77 -181 -57 -181Q-27 -181 -6 -145T41 -9L140 395Q145 415 127 427T61 442V454L259 463L149 23Q118 -97 71 -149T-61 -201Z" />
<glyph unicode="k" glyph-name="k" horiz-adv-x="506" d="M311 717L189 271H216Q249 271 277 302T323 369T372 437T440 468Q471 468 488 450T506 407Q506 376 491 359T450 341Q425 341 410 354T394 390Q394 408 405 424Q385 420 362 387T313 316T260 269V266Q341
262 371 237T401 162Q401 149 398 108T394 50Q394 30 409 23T474 16V6Q440 -8 377 -8Q324 -8 307 8T290 61Q290 82 294 120T298 168Q298 219 282 237T225 256H186L123 0H15L62 162L184 644Q191 669 173 680T100 695V707L311 717Z" />
<glyph unicode="l" glyph-name="l" horiz-adv-x="288" d="M325 717L147 106Q140 78 140 64Q140 40 162 32T243 28V18Q184 -7 123 -7Q37 -7 37 61Q37 80 45 107L151 458L200 644Q206 669 188 680T116 695V707L325 717Z" />
<glyph unicode="m" glyph-name="m" horiz-adv-x="807" d="M246 463L216 366L220 363Q321 466 399 466Q445 466 469 442T493 375V369Q596 466 670 466Q715 466 740 442T765 375Q765 344 753 307L685 96Q676 68 676 51Q676 30 695 25T765 23V13Q714 -8 664 -8Q577
-8 577 54Q577 75 586 102L651 303Q664 342 664 365Q664 410 617 410Q563 410 492 351Q491 341 484 315L395 0H293L381 303Q393 342 393 365Q393 410 343 410Q289 410 212 343L127 0H18L66 162L128 391Q135 416 123 427T65 442V454L246 463Z" />
<glyph unicode="n" glyph-name="n" horiz-adv-x="543" d="M66 162L128 391Q135 416 123 427T65 442V454L246 463L216 366L218 364Q264 411 314 438T405 466Q451 466 475 442T500 374Q500 341 489 307L421 96Q411 64 411 51Q411 30 430 25T501 23V13Q450 -8 400
-8Q313 -8 313 54Q313 75 322 102L387 303Q398 339 398 361Q398 410 345 410Q289 410 212 343L127 0H18L66 162Z" />
<glyph unicode="o" glyph-name="o" horiz-adv-x="502" d="M296 468Q376 468 425 416T474 276Q474 207 443 143T350 35T207 -9T78 43T28 183Q28 292 102 380T296 468ZM206 11Q245 11 278 46T332 133T363 238T375 333Q375 449 296 449Q257 449 224 414T170 327T139
222T127 126Q127 11 206 11Z" />
<glyph unicode="p" glyph-name="p" horiz-adv-x="532" d="M226 17Q272 17 312 65T374 181T396 315Q396 417 319 417Q295 417 268 403T220 366L144 72Q153 47 176 32T226 17ZM132 25L86 -146Q82 -162 101 -169T179 -179V-191H-100V-179Q-29 -176 -22 -151L21 -17L129
392Q135 418 123 428T65 442V454L246 463L224 391L227 389Q298 468 377 468Q431 468 466 428T502 316Q502 197 418 96T229 -6Q166 -6 132 25Z" />
<glyph unicode="q" glyph-name="q" horiz-adv-x="520" d="M308 445Q260 445 219 391T158 271T138 150Q138 98 158 70T215 42Q270 42 313 117L387 367Q377 401 357 423T308 445ZM243 -151L314 79H309Q244 -9 164 -9Q104 -9 67 37T30 158Q30 271 112 369T294 468Q364
468 403 411L419 456L525 468L471 306L351 -151Q348 -167 361 -172T428 -179V-191H151V-179Q201 -177 220 -171T243 -151Z" />
<glyph unicode="r" glyph-name="r" horiz-adv-x="423" d="M372 467Q407 467 426 448T446 399Q446 365 428 344T382 323Q355 323 339 336T323 376T336 416Q282 413 207 325L127 0H18L66 162L128 391Q135 416 123 427T65 442V454L246 463L213 355L215 353Q297 467 372 467Z" />
<glyph unicode="s" glyph-name="s" horiz-adv-x="407" d="M161 -9Q97 -9 52 15T7 79Q7 106 23 124T66 143Q89 143 104 129T119 91Q119 62 91 40Q100 28 125 19T176 10Q222 10 250 34T279 97Q279 115 273 128T249 154T221 173T184 193Q131 218 103 245T75 317Q75
382 123 425T257 468Q319 468 358 443T398 380Q398 354 384 337T341 320Q319 320 304 335T289 370Q289 402 318 422Q311 434 289 441T245 449Q203 449 178 426T152 366Q152 344 167 325T198 297T246 271Q301 244 328 216T356 144Q356 80 308 36T161 -9Z" />
<glyph unicode="t" glyph-name="t" horiz-adv-x="338" d="M376 436H252L168 135Q159 103 159 83Q159 37 214 37Q252 37 303 51V41Q219 -9 154 -9Q54 -9 54 74Q54 100 63 131L152 436H63L70 458H158L201 606L310 622L258 458H383L376 436Z" />
<glyph unicode="u" glyph-name="u" horiz-adv-x="556" d="M56 150L133 389Q142 415 128 427T69 442V454L255 463L158 154Q148 124 148 100Q148 50 208 50Q260 50 331 116L387 303L428 461H535L426 101Q416 68 416 54Q416 32 435 26T504 23V13Q451 -9 401 -9Q319
-9 319 49Q319 64 327 90L325 92Q233 -9 146 -9Q95 -9 70 16T44 86Q44 116 56 150Z" />
<glyph unicode="v" glyph-name="v" horiz-adv-x="473" d="M200 -13L131 -6L124 149L95 387Q91 417 78 426T20 435V447L188 464L220 156L224 62H230L289 143Q376 261 399 335Q347 360 347 406Q347 434 363 451T408 469Q435 469 452 449T470 403Q470 368 450 330T363
203L200 -13Z" />
<glyph unicode="w" glyph-name="w" horiz-adv-x="719" d="M462 -14L391 -5L385 149L373 243L203 -13L130 -6L124 149L95 387Q91 417 78 426T20 435V447L188 464L220 156L223 63H229L288 155Q348 248 367 301L348 455L450 464L482 156L485 61H492L549 143Q623 245
651 335Q599 360 599 406Q599 434 615 451T660 469Q687 469 704 449T722 403Q722 366 704 327T622 203L462 -14Z" />
<glyph unicode="x" glyph-name="x" horiz-adv-x="503" d="M223 464L284 272H287L326 352Q357 415 387 442T454 470Q485 470 503 451T522 404T506 361T465 344T425 361T410 410Q376 399 328 308L296 245L362 84Q380 42 395 30T456 15V3L291 -4L229 191H227L184
108Q148 38 118 11T53 -17T0 1T-20 48Q-20 75 -5 91T38 108Q63 108 79 88T93 39Q107 44 131 74T178 145L217 214L149 380Q135 414 120 424T59 436V448L223 464Z" />
<glyph unicode="y" glyph-name="y" horiz-adv-x="464" d="M181 464L215 263L248 45H250L306 132Q384 254 394 334Q366 343 351 362T335 406Q335 433 351 451T394 469Q422 469 439 449T456 398Q456 356 431 301T318 108Q237 -21 179 -90T84 -179T6 -200T-57 -180T-79
-127Q-79 -101 -61 -82T-18 -63T24 -80T41 -125Q41 -152 26 -169Q106 -156 171 -57L130 180L92 387Q87 417 72 426T14 435V447L181 464Z" />
<glyph unicode="z" glyph-name="z" horiz-adv-x="453" d="M3 -16L-12 8L375 383L373 386L203 383Q151 382 131 368T78 295L66 297L109 461H453L461 436L86 70L88 67Q119 79 166 79Q186 79 231 76T290 73Q333 73 353 90T388 161L400 159Q387 53 361 22T270 -10Q234
-10 184 -4T110 2Q42 2 3 -16Z" />
<glyph unicode="{" glyph-name="braceleft" horiz-adv-x="408" d="M319 -169Q223 -167 166 -125T109 -16Q109 29 140 116T172 233Q172 276 147 293T44 319L48 335Q115 340 148 349T204 382Q226 404 235 445T247 525T266 614T320 699Q355 734 408 748T552 764L547
749Q497 745 470 735T421 703Q393 675 378 630T359 546T338 461T293 386Q265 358 222 345T104 328L101 323Q194 315 229 283T264 198Q264 161 240 80T215 -39Q215 -141 323 -154L319 -169Z" />
<glyph unicode="|" glyph-name="bar" horiz-adv-x="306" d="M140 746H166V-215H140V746Z" />
<glyph unicode="}" glyph-name="braceright" horiz-adv-x="408" d="M-109 -169L-104 -154Q-55 -150 -28 -140T21 -108Q49 -80 65 -32T86 60T108 153T155 231Q183 260 226 273T344 290L347 295Q254 303 219 335T184 420Q184 454 206 524T228 634Q228 736 120 749L124
764Q220 762 277 719T335 611Q335 565 305 489T275 385Q275 342 300 324T404 299L400 283Q332 278 300 268T245 235T211 168T198 80T177 -15T123 -103Q88 -138 35 -153T-109 -169Z" />
<glyph unicode="~" glyph-name="asciitilde" horiz-adv-x="375" d="M56 248Q83 375 158 375Q179 375 230 350T301 325Q322 325 334 336T361 384H376Q361 317 337 287T273 257Q252 257 201 281T130 306Q109 306 97 295T70 248H56Z" />
</font>
</defs>
</svg>
